<?xml version="1.0" encoding="utf-8"?>
<!-- Generator: Adobe Illustrator 16.0.0, SVG Export Plug-In . SVG Version: 6.00 Build 0)  -->
<!DOCTYPE svg PUBLIC "-//W3C//DTD SVG 1.1//EN" "http://www.w3.org/Graphics/SVG/1.1/DTD/svg11.dtd">
<svg version="1.1" id="Layer_1" xmlns="http://www.w3.org/2000/svg" xmlns:xlink="http://www.w3.org/1999/xlink" x="0px" y="0px"
	 width="72px" height="22px" viewBox="4.5 5 72 22" enable-background="new 4.5 5 72 22" xml:space="preserve">
<g>
	<g>
		<g>
			<path fill="#414042" d="M31.226,21.352h-0.543v-1.344h-1.526v1.344h-0.541v-2.979h0.541v1.219h1.526v-1.219h0.543V21.352z"/>
			<path fill="#414042" d="M35.498,19.855c0,0.485-0.134,0.861-0.403,1.131c-0.27,0.27-0.65,0.404-1.144,0.404
				c-0.5,0-0.883-0.134-1.151-0.4c-0.268-0.268-0.401-0.646-0.401-1.139s0.134-0.867,0.403-1.131
				c0.269-0.265,0.654-0.396,1.153-0.396c0.492,0,0.872,0.134,1.141,0.4C35.365,18.992,35.498,19.371,35.498,19.855z M32.973,19.855
				c0,0.367,0.083,0.646,0.247,0.834c0.165,0.189,0.409,0.285,0.731,0.285c0.321,0,0.564-0.094,0.728-0.281
				c0.164-0.187,0.245-0.467,0.245-0.838c0-0.364-0.081-0.642-0.243-0.83c-0.162-0.188-0.404-0.283-0.726-0.283
				c-0.324,0-0.569,0.095-0.734,0.283C33.056,19.215,32.973,19.491,32.973,19.855z"/>
			<path fill="#414042" d="M36.674,21.352v-2.979h0.541v2.562h1.4v0.418H36.674z"/>
			<path fill="#414042" d="M42.339,19.832c0,0.492-0.15,0.868-0.455,1.128c-0.303,0.261-0.738,0.392-1.311,0.392h-0.925v-2.979
				h1.023c0.525,0,0.936,0.128,1.229,0.383S42.339,19.369,42.339,19.832z M41.771,19.85c0-0.713-0.371-1.07-1.111-1.07H40.19v2.162
				h0.385C41.372,20.941,41.771,20.576,41.771,19.85z"/>
			<path fill="#414042" d="M43.515,21.352v-2.979h0.539v2.979H43.515z"/>
			<path fill="#414042" d="M48.148,21.352h-0.662l-1.629-2.373H45.84l0.012,0.131c0.021,0.252,0.031,0.483,0.031,0.693v1.549h-0.491
				v-2.979h0.657l1.623,2.36h0.014c-0.004-0.031-0.01-0.146-0.018-0.342c-0.012-0.195-0.016-0.349-0.016-0.459v-1.561h0.496V21.352
				L48.148,21.352z"/>
			<path fill="#414042" d="M50.84,19.734h1.219v1.494c-0.199,0.061-0.391,0.102-0.576,0.125c-0.182,0.024-0.381,0.037-0.592,0.037
				c-0.502,0-0.889-0.134-1.16-0.4c-0.271-0.268-0.406-0.643-0.406-1.129c0-0.479,0.152-0.855,0.459-1.127
				c0.307-0.271,0.729-0.405,1.266-0.405c0.346,0,0.674,0.062,0.982,0.179l-0.189,0.406c-0.27-0.111-0.539-0.167-0.809-0.167
				c-0.352,0-0.631,0.101-0.836,0.299c-0.205,0.2-0.309,0.474-0.309,0.819c0,0.363,0.094,0.641,0.277,0.83
				c0.184,0.188,0.449,0.283,0.799,0.283c0.176,0,0.359-0.021,0.561-0.06V20.15H50.84V19.734z"/>
			<path fill="#414042" d="M55.225,20.541c0,0.266-0.107,0.473-0.32,0.624c-0.213,0.149-0.506,0.226-0.881,0.226
				c-0.373,0-0.68-0.053-0.918-0.156v-0.461c0.15,0.063,0.313,0.115,0.48,0.15c0.17,0.037,0.328,0.057,0.475,0.057
				c0.215,0,0.373-0.037,0.475-0.109c0.102-0.074,0.152-0.174,0.152-0.296c0-0.111-0.047-0.206-0.141-0.283
				s-0.287-0.169-0.578-0.274c-0.305-0.109-0.518-0.235-0.641-0.377c-0.123-0.143-0.186-0.312-0.186-0.51
				c0-0.249,0.098-0.443,0.295-0.587c0.195-0.144,0.459-0.214,0.791-0.214c0.316,0,0.631,0.063,0.943,0.188l-0.17,0.397
				c-0.295-0.112-0.559-0.167-0.787-0.167c-0.176,0-0.311,0.034-0.4,0.104c-0.09,0.068-0.135,0.158-0.135,0.271
				c0,0.078,0.018,0.146,0.055,0.198c0.035,0.056,0.094,0.107,0.18,0.156c0.08,0.049,0.23,0.113,0.445,0.193
				c0.244,0.092,0.422,0.176,0.535,0.255c0.113,0.078,0.195,0.167,0.25,0.267C55.197,20.29,55.225,20.407,55.225,20.541z"/>
		</g>
		<g>
			<path fill="#414042" d="M28.616,16.829v-6.22h0.496v3.776l4.03-3.776h0.574l-2.871,2.725l3.018,3.495h-0.565l-2.773-3.223
				l-1.413,1.305v1.918H28.616z"/>
			<path fill="#414042" d="M39.499,16.427v0.402h-4.605v-6.22h4.517v0.403H35.39v2.444h3.514v0.385H35.39v2.585h4.109V16.427z"/>
			<path fill="#414042" d="M47.209,16.829v-5.378l-2.728,4.196h-0.313l-2.725-4.196v5.378h-0.496v-6.22h0.496l2.881,4.45l2.884-4.45
				h0.494v6.22H47.209z"/>
			<path fill="#414042" d="M54.703,15.218c0,0.228-0.049,0.439-0.146,0.635c-0.096,0.196-0.229,0.367-0.398,0.513
				c-0.168,0.146-0.365,0.26-0.594,0.342c-0.227,0.082-0.467,0.122-0.721,0.122h-3.23v-6.22h3.223c0.238,0,0.457,0.047,0.65,0.141
				c0.195,0.094,0.361,0.215,0.496,0.363c0.137,0.149,0.242,0.318,0.316,0.509c0.074,0.189,0.111,0.381,0.111,0.573
				c0,0.315-0.088,0.604-0.262,0.867c-0.176,0.264-0.42,0.456-0.73,0.578c0.396,0.105,0.711,0.303,0.939,0.592
				C54.588,14.521,54.703,14.85,54.703,15.218z M50.107,11.013v2.488h2.531c0.188,0,0.361-0.035,0.516-0.105
				c0.156-0.069,0.291-0.162,0.404-0.275c0.113-0.114,0.203-0.247,0.268-0.399c0.064-0.151,0.1-0.307,0.1-0.464
				c0-0.17-0.033-0.328-0.094-0.478c-0.063-0.148-0.146-0.28-0.254-0.395c-0.105-0.113-0.234-0.204-0.385-0.271
				c-0.148-0.067-0.314-0.101-0.496-0.101H50.107z M54.207,15.157c0-0.164-0.033-0.323-0.098-0.478
				c-0.064-0.155-0.156-0.292-0.271-0.412c-0.117-0.12-0.256-0.215-0.414-0.285c-0.16-0.07-0.33-0.104-0.512-0.104h-2.805v2.549
				h2.736c0.195,0,0.373-0.035,0.539-0.105c0.166-0.069,0.309-0.164,0.43-0.284c0.119-0.12,0.215-0.256,0.287-0.407
				C54.17,15.478,54.207,15.32,54.207,15.157z"/>
			<path fill="#414042" d="M58.178,10.609h0.428l2.92,6.22h-0.523l-0.965-2.05h-3.301l-0.963,2.05h-0.535L58.178,10.609z
				 M59.9,14.412l-1.508-3.259l-1.539,3.259H59.9z"/>
			<path fill="#414042" d="M62.674,16.829v-6.22h2.871c0.293,0,0.563,0.056,0.809,0.167c0.246,0.111,0.459,0.259,0.637,0.442
				c0.18,0.183,0.318,0.392,0.42,0.622s0.15,0.463,0.15,0.696c0,0.228-0.039,0.448-0.115,0.661c-0.08,0.214-0.189,0.404-0.332,0.574
				s-0.314,0.31-0.516,0.42c-0.203,0.111-0.424,0.185-0.662,0.22l1.721,2.417h-0.572l-1.676-2.348h-2.236v2.348L62.674,16.829
				L62.674,16.829z M63.172,14.07h2.424c0.221,0,0.422-0.044,0.604-0.132c0.182-0.087,0.336-0.202,0.469-0.346
				c0.129-0.144,0.229-0.307,0.295-0.49c0.068-0.185,0.104-0.372,0.104-0.565c0-0.198-0.041-0.39-0.121-0.573
				c-0.082-0.185-0.191-0.347-0.332-0.487s-0.301-0.252-0.484-0.337c-0.188-0.084-0.387-0.127-0.6-0.127h-2.355v3.057H63.172z"/>
			<path fill="#414042" d="M71.152,10.609h0.428l2.922,6.22h-0.525l-0.965-2.05h-3.299l-0.963,2.05h-0.535L71.152,10.609z
				 M72.875,14.412l-1.508-3.259l-1.539,3.259H72.875z"/>
		</g>
	</g>
	<g>
		<path fill="#414042" d="M13.519,17.145c-0.717,0.797-1.314,1.457-1.906,2.121c-0.597,0.666-1.212,1.32-1.775,2.018
			c-0.296,0.367-0.67,0.486-1.034,0.322c-0.161-0.072-0.227-0.496-0.228-0.76c-0.015-3.627-0.003-7.251-0.018-10.876
			c0-0.103-0.013-0.501,0-0.601C6.835,11.053,5.763,13.4,5.763,16c0,5.125,4.155,9.279,9.279,9.279c1.859,0,3.586-0.553,5.037-1.492
			C19.905,23.664,13.698,17.4,13.519,17.145z"/>
		<path fill="#414042" d="M11.891,17.039c0.072,0.033,0.143,0.064,0.213,0.1c2.857-2.834,5.714-5.667,8.571-8.5
			c-1.563-1.197-3.512-1.917-5.633-1.917c-1.115,0-2.18,0.207-3.17,0.568c0.006,0.003,0.013,0.008,0.019,0.012
			C11.891,10.548,11.891,13.793,11.891,17.039z"/>
		<path fill="#414042" d="M22.548,21.441c1.111-1.53,1.773-3.407,1.773-5.441c0-2.904-1.336-5.495-3.424-7.196
			c-1.734,1.958-3.468,3.916-5.223,5.898C17.933,16.932,20.2,19.123,22.548,21.441z"/>
		<g>
			<path fill="#414042" d="M15.042,26.542C9.23,26.542,4.5,21.813,4.5,16c0-5.813,4.73-10.542,10.542-10.542
				c5.813,0,10.543,4.729,10.543,10.542C25.585,21.813,20.856,26.542,15.042,26.542z M15.042,5.976
				C9.515,5.976,5.018,10.472,5.018,16c0,5.527,4.497,10.025,10.024,10.025c5.528,0,10.025-4.498,10.025-10.025
				C25.068,10.472,20.57,5.976,15.042,5.976z"/>
		</g>
	</g>
</g>
</svg>
